<svg xmlns="http://www.w3.org/2000/svg" xml:space="preserve" id="Шар_1" x="0" y="0" version="1.1" viewBox="0 0 211.7 149.1"><style>.st0{fill:#fff}.st1{fill:#231f20}</style><path d="m19 106.5 5.3 35.5h-9.4l-.5-6.4H11l-.5 6.4H1l4.7-35.5H19zm-4.9 22.8c-.4-4-.9-9-1.4-14.9-.9 6.8-1.5 11.8-1.7 14.9h3.1zM25.9 106.5h9.2c2.9 0 5.1.2 6.6.7 1.5.4 2.7 1.4 3.6 2.7.9 1.4 1.4 3.6 1.4 6.7 0 2.1-.3 3.5-1 4.3s-1.9 1.4-3.9 1.9c2.1.5 3.6 1.3 4.4 2.4.8 1.1 1.1 2.8 1.1 5.2v3.3c0 2.4-.3 4.2-.8 5.3a4.4 4.4 0 0 1-2.6 2.4c-1.2.4-3.6.6-7.4.6H25.9v-35.5zm9.2 6.1v7.9h.9c.9 0 1.5-.2 1.7-.7.2-.4.4-1.7.4-3.8 0-1.1-.1-1.9-.3-2.3s-.5-.7-.8-.8c-.3-.3-.9-.3-1.9-.3zm0 13.4v10c1.3 0 2.1-.2 2.4-.6.4-.4.5-1.3.5-2.7v-3.3c0-1.5-.2-2.4-.5-2.8-.2-.4-1-.6-2.4-.6M69.2 106.5v7.1h-5.4V142h-9.2v-28.4h-5.5v-7.1h20.1zM92.4 127.3c0 3.6-.1 6.1-.3 7.6a8.39 8.39 0 0 1-5.2 6.9c-1.5.7-3.3 1-5.2 1-1.9 0-3.6-.3-5.1-.9a7.7 7.7 0 0 1-3.6-2.8c-.9-1.2-1.5-2.6-1.6-4.1-.2-1.5-.3-4-.3-7.7v-6.1c0-3.6.1-6.1.3-7.6a8.39 8.39 0 0 1 5.2-6.9c1.5-.7 3.3-1 5.2-1 1.9 0 3.6.3 5.1.9s2.7 1.5 3.6 2.8c.9 1.2 1.5 2.6 1.6 4.1.2 1.5.3 4 .3 7.7v6.1zm-9.3-11.7c0-1.6-.1-2.7-.3-3.2-.2-.5-.5-.7-1.1-.7-.5 0-.8.2-1.1.6-.2.4-.4 1.5-.4 3.3v16.6c0 2.1.1 3.3.2 3.8.2.5.5.7 1.1.7s1-.3 1.2-.8c.2-.6.3-1.9.3-4v-16.3h.1zM130.2 148.1h-6.4V142h-14.9v6.1h-6.4v-13.5h1.9c1-2.9 1.8-6.7 2.5-11.5.6-4.7 1-9.9 1-15.5v-1.1h20.5v28h1.9l-.1 13.6zM119 134.5v-21h-2.7v.3c0 6.8-.7 13.7-2.2 20.8h4.9v-.1zM142.3 106.5V142H133v-35.5h9.3zM168.5 142h-9.2v-28.4h-2.7v20.1c0 2.6-.3 4.5-1 5.7s-1.7 1.9-3.1 2.2c-1.4.3-3.6.4-6.6.4h-1.4v-6.1c1.1 0 1.9-.1 2.3-.4.4-.3.6-1.2.6-2.8v-26.1h21.2V142h-.1zM172.1 106.5h15.4v7.1h-6.1v6.8h5.7v6.7h-5.7v7.8h6.8v7.1h-16l-.1-35.5zM190.8 106.5h9.3c2.5 0 4.4.2 5.8.6 1.3.4 2.4 1 3 1.7.7.7 1.1 1.7 1.4 2.7.2 1.1.4 2.7.4 4.9v3.1c0 2.3-.2 3.9-.7 4.9s-1.3 1.8-2.6 2.4c-1.2.6-2.9.8-4.9.8H200V142h-9.2v-35.5zm9.2 6.1v9h.7c.8 0 1.4-.2 1.8-.6.3-.4.5-1.3.5-2.6v-2.9c0-1.2-.2-2-.6-2.4-.4-.4-1.2-.5-2.4-.5" class="st0"/><path d="m62.1 97.4 6-10.3h-12l-6 10.3h12zM69.8 84l41.9-72.7-6-10.3-47.8 83h11.9z" class="st1"/><path d="m126.2 84-2.3-4h11.9l2.3 4.1h-2.7l-9.2-.1zm-4.1-7.1-6-10.3H128l6 10.3h-11.9zm-7.7-13.4-8.6-14.9-8.6 14.9h-12l14.6-25.3 6-10.3 20.6 35.6h-12zm-19 3-6 10.3H77.5l6-10.3h11.9zM87.7 80l-2.3 4H73.5l2.3-4h11.9z" class="st0"/><path d="m149.5 97.4-6-10.3h11.9l6 10.3h-11.9zM141.7 84 99.8 11.3l6-10.3 47.9 83h-12z" class="st1"/><path d="M165.1 97.4H46.5l6-10.3h106.6l6 10.3z" class="st1"/><path d="M134.1 76.9H77.5l6-10.3h44.7l5.9 10.3z"/><path d="m88 68.1 1.1 7.3h-1.9l-.1-1.3h-.7l-.1 1.3h-2l1-7.3H88zm-1 4.7c-.1-.8-.2-1.8-.3-3.1-.2 1.4-.3 2.4-.4 3.1h.7zM89.4 68.1h1.9c.6 0 1 0 1.3.1s.6.3.7.6c.2.3.3.7.3 1.4 0 .4-.1.7-.2.9-.1.2-.4.3-.8.4.4.1.7.3.9.5.2.2.2.6.2 1.1v.7c0 .5-.1.9-.2 1.1s-.3.4-.5.5-.7.1-1.5.1h-2.2l.1-7.4zm1.9 1.2V71h.2c.2 0 .3 0 .3-.1.1-.1.1-.4.1-.8 0-.2 0-.4-.1-.5 0-.1-.1-.1-.2-.2 0 0-.1-.1-.3-.1zm0 2.8v2c.3 0 .4-.1.5-.1.1-.1.1-.3.1-.6v-.7c0-.3 0-.5-.1-.6h-.5M98.3 68.1v1.5h-1.1v5.8h-1.9v-5.8h-1.1v-1.5h4.1zM103 72.4c0 .7 0 1.2-.1 1.5 0 .3-.1.6-.3.8-.2.3-.4.4-.7.6-.3.1-.7.2-1.1.2s-.7-.1-1-.2-.6-.3-.7-.6c-.2-.3-.3-.5-.3-.8s-.1-.8-.1-1.6v-1.2c0-.7 0-1.2.1-1.5 0-.3.1-.6.3-.8.2-.3.4-.4.7-.6.3-.1.7-.2 1.1-.2s.7.1 1 .2.6.3.7.6c.2.3.3.5.3.8s.1.8.1 1.6v1.2zm-1.9-2.4c0-.3 0-.6-.1-.6 0-.1-.1-.1-.2-.1s-.2 0-.2.1c-.1.1-.1.3-.1.7v3.4c0 .4 0 .7.1.8 0 .1.1.1.2.1s.2-.1.2-.2.1-.4.1-.8V70zM110.8 76.6h-1.3v-1.2h-3v1.2h-1.3v-2.8h.4c.2-.6.4-1.4.5-2.3.1-1 .2-2 .2-3.2v-.2h4.2v5.7h.4l-.1 2.8zm-2.3-2.8v-4.3h-.6v.1c0 1.4-.2 2.8-.4 4.3l1-.1zM113.2 68.1v7.3h-1.9v-7.3h1.9zM118.6 75.4h-1.9v-5.8h-.6v4.1c0 .5-.1.9-.2 1.2-.1.2-.4.4-.6.4-.3.1-.7.1-1.4.1h-.3v-1.2c.2 0 .4 0 .5-.1s.1-.3.1-.6v-5.3h4.3l.1 7.2zM119.3 68.1h3.1v1.5h-1.3V71h1.2v1.4h-1.2V74h1.4v1.5h-3.3v-7.4h.1zM123.2 68.1h1.9c.5 0 .9 0 1.2.1.3.1.5.2.6.3.1.2.2.3.3.6 0 .2.1.6.1 1v.6c0 .5 0 .8-.1 1s-.3.4-.5.5c-.3.1-.6.2-1 .2h-.7v2.9h-1.9l.1-7.2zm1.8 1.2v1.8h.1c.2 0 .3 0 .4-.1s.1-.3.1-.5v-.6c0-.2 0-.4-.1-.5 0 0-.2-.1-.5-.1M69.9 91.2c.1 0 .1 0 0 0l.1 2.4v.1h-1.6s0-.1.1-.2c.1-.2.3-.5.4-.9s.2-.9.2-1.4v-.1h.1l.7.1zm-.8-.4c-.2 0-.3 0-.4.1s-.1.2-.1.3c0 .6-.1 1.1-.2 1.5s-.3.8-.6 1.1l-.1.1-.1.1V94.8c0 .1 0 .1.1.1s.1-.1.1-.1c0-.3.1-.5.2-.6s.2-.1.3-.1H70c.2 0 .3.1.4.2s.2.3.3.6c0 .1.1.1.1.1.1 0 .1-.1.1-.1v-.7l-.1-.1c-.1 0-.2-.1-.2-.2V91.3c0-.1 0-.2-.1-.3-.1-.1-.2-.1-.4-.1l-1-.1zM75.5 93.2c-.1.2-.2.4-.3.5-.2.1-.4.2-.6.2-.3 0-.6-.1-.7-.4-.2-.2-.2-.5-.3-.9H76v-.1c0-.5-.1-.9-.4-1.2-.3-.4-.6-.5-1.1-.5-.4 0-.8.2-1 .5s-.4.7-.4 1.2.1.9.4 1.2c.3.4.6.5 1 .5.3 0 .6-.1.8-.2.2-.2.4-.4.5-.7v-.2l-.1-.1h-.2v.2zm-2-1c0-.3.1-.6.3-.8.2-.3.4-.4.7-.4.3 0 .5.1.7.4.2.2.2.5.3.8h-2zM81.2 90.8h-2.7c-.1 0-.2.1-.2.2s.1.2.2.2h1.2V94c0 .1 0 .1.1.2h.1s.1 0 .1-.1l.1-.1v-2.9h1.2c.1 0 .1 0 .1-.1v-.2h-.2M85.8 93.3c-.1.2-.2.3-.4.4-.2.1-.4.2-.7.2-.2 0-.4-.1-.6-.2-.1-.1-.1-.2-.1-.4s.1-.4.2-.5.3-.2.7-.2c.3 0 .5-.1.7-.1.1 0 .2-.1.3-.1l-.1.9zm-.8-2.6c-.3 0-.6.1-.8.2-.2.2-.3.4-.4.7v.1l.1.1h.1l.1-.1c0-.2.1-.4.2-.5s.3-.2.6-.2.5.1.6.2.2.3.2.5-.1.3-.2.4-.4.1-.8.2c-.5.1-.8.2-1 .4-.1.1-.2.4-.2.6 0 .3.1.5.3.7.2.2.5.3.8.3s.5 0 .7-.1.3-.2.4-.3c0 .1 0 .2.1.3.1.1.2.1.5.1.1 0 .2-.1.2-.2s-.1-.2-.2-.2-.1 0-.2-.1c0 0-.1-.1-.1-.2v-1.9c0-.3-.1-.6-.4-.7.1-.2-.2-.3-.6-.3M89.8 90.8c-.2 0-.3 0-.4.1s-.1.2-.1.3v1.6c0 .4 0 .6-.1.8-.1.3-.3.4-.6.4-.1 0-.1 0-.1.1s.1.1.2.1c.4 0 .7-.2.8-.4.1-.2.2-.5.2-.9V91.3s.1-.1.2-.1H91V94c0 .1 0 .1.1.2h.1s.1 0 .1-.1l.1-.1v-2.8c0-.1 0-.2-.1-.3-.1-.1-.2-.1-.3-.1h-1.2zM101.1 91.2c.1 0 .1 0 0 0l.1 2.4v.1h-1.6s0-.1.1-.2c.1-.2.3-.5.4-.9s.2-.9.2-1.4v-.1h.1l.7.1zm-.8-.4c-.2 0-.3 0-.4.1s-.1.2-.1.3c0 .6-.1 1.1-.2 1.5s-.3.8-.6 1.1l-.1.1-.1.1V94.8c0 .1 0 .1.1.1s.1-.1.1-.1c0-.3.1-.5.2-.6s.2-.1.3-.1h1.7c.2 0 .3.1.4.2s.2.3.3.6c0 .1.1.1.1.1.1 0 .1-.1.1-.1v-.7l-.1-.1c-.1 0-.2-.1-.2-.2V91.3c0-.1 0-.2-.1-.3-.1-.1-.2-.1-.4-.1l-1-.1zM105.8 90.7c-.5 0-.9.2-1.1.5s-.4.7-.4 1.2.1.9.4 1.2c.3.4.7.5 1.1.5.5 0 .9-.2 1.1-.5s.4-.7.4-1.2-.1-.9-.4-1.2c-.2-.3-.6-.5-1.1-.5zm0 .4c.4 0 .6.1.8.4.2.3.3.6.3 1s-.1.7-.3 1c-.2.3-.5.4-.8.4-.4 0-.6-.1-.9-.4-.2-.3-.3-.6-.3-1s.1-.7.3-1c.3-.3.6-.4.9-.4M112.1 91v3c0 .1 0 .1.1.2l.1.1s.1 0 .1-.1c0 0 .1-.1.1-.2v-2.6l1.2 2.7c0 .1.1.2.2.2s.2-.1.3-.2l1.1-2.7V94c0 .1 0 .1.1.2l.1.1c.1 0 .1 0 .1-.1 0 0 .1-.1.1-.2v-3c0-.1 0-.2-.1-.2 0 0-.1-.1-.2-.1s-.1 0-.2.1c-.1 0-.1.1-.1.2l-1.2 2.7-1.2-2.7c0-.1-.1-.1-.1-.2-.1 0-.1-.1-.2 0-.1 0-.1 0-.2.1 0-.1-.1 0-.1.1M120.5 93.3c-.1.2-.2.3-.4.4-.2.1-.4.2-.7.2-.2 0-.4-.1-.6-.2-.1-.1-.2-.3-.2-.4 0-.2.1-.4.2-.5s.3-.2.7-.2c.3 0 .5-.1.7-.1.1 0 .2-.1.3-.1v.9zm-.9-2.6c-.3 0-.6.1-.8.2-.2.2-.3.4-.4.7v.1l.1.1h.1l.1-.1c0-.2.1-.4.2-.5s.3-.2.6-.2.5.1.6.2.2.3.2.5-.1.3-.2.4-.4.1-.8.2c-.5.1-.8.2-1 .4-.1.1-.2.4-.2.6 0 .3.1.5.3.7.2.2.5.3.8.3s.5 0 .7-.1.3-.2.4-.3c0 .1 0 .2.1.3.1.1.2.1.5.1.1 0 .2-.1.2-.2s-.1-.2-.2-.2-.1 0-.2-.1c0 0-.1-.1-.1-.2v-1.9c0-.3-.1-.6-.4-.7.1-.2-.2-.3-.6-.3M127.6 90.9c0-.1 0-.1 0 0l-.2-.1h-.1l-.1.1v2.6c0 .1 0 .2-.1.2 0 0-.1.1-.2.1h-1v-2.9c0-.1 0-.1-.1-.1h-.2l-.1.1v2.9h-1.1c-.1 0-.2 0-.2-.1 0 0-.1-.1-.1-.2V91c0-.1 0-.1-.1-.1h-.2l-.1.1v2.5c0 .2.1.4.2.5s.3.2.5.2h2.6c.2 0 .4-.1.5-.2s.2-.3.2-.5v-2.6h-.1zM133.1 90.9c0-.1 0-.1-.1-.2l-.1-.1h-.1s-.1.1-.1.2v.1l-1.9 2.3v-2.5c0-.1 0-.1-.1-.1h-.2l-.1.1V94c0 .1 0 .1.1.1h.2l.1-.1v-.2l1.9-2.3V94c0 .1 0 .1.1.2l.1.1c.1 0 .1 0 .1-.1 0 0 .1-.1.1-.2v-3.1zM135.9 90.9V94c0 .1 0 .1.1.2l.1.1s.1 0 .1-.1c0 0 .1-.1.1-.2v-1.4h2V94c0 .1 0 .1.1.2h.2s.1-.1.1-.2v-3.1c0-.1 0-.1-.1-.2h-.2l-.1.1v1.3h-2v-1.3c0-.1 0-.1-.1-.2l-.1-.1h-.1c-.1.3-.1.4-.1.4M144.1 90.9c0-.1 0-.1-.1-.2l-.1-.1h-.1s-.1.1-.1.2v.1l-1.9 2.3v-2.5c0-.1 0-.1-.1-.1h-.2l-.1.1V94c0 .1 0 .1.1.1h.2l.1-.1v-.2l1.9-2.3V94c0 .1 0 .1.1.2l.1.1c.1 0 .1 0 .1-.1 0 0 .1-.1.1-.2v-3.1zM94.2 90.9V94c0 .1 0 .1.1.2h.1c.1 0 .1 0 .1-.1l.1-.1v-3.1c0-.1 0-.1-.1-.1h-.1c-.1 0-.1 0-.2.1 0-.1 0-.1 0 0zm.2-1.4c-.1 0-.2 0-.2.1s-.1.1-.1.2 0 .2.1.2c.1.1.1.1.2.1s.2 0 .2-.1c.1-.1.1-.1.1-.2s0-.2-.1-.2c-.1-.1-.1-.1-.2-.1M65 79.4l2.6 1.5h.2c.1 0 .1 0 .1-.1v-.1c0-.1-.1-.1-.1-.1l-1.2-.7 1-1.7 1.2.7h.2s.1 0 .1-.1v-.1c0-.1 0-.1-.1-.1L66.3 77h-.2s-.1 0-.1.1v.1s0 .1.1.1l1.2.7-1 1.7-1.1-.7H65c-.1 0-.1 0-.1.1v.1c0 .1 0 .1.1.2M70.4 74.8c.1.2.1.3.1.6 0 .2-.1.5-.2.7s-.3.4-.4.4-.3 0-.5-.1-.3-.2-.3-.4 0-.4.1-.7c.1-.3.2-.5.2-.7v-.3l1 .5zm-2.7-.6c-.2.3-.2.6-.2.8 0 .3.2.5.4.7 0 0 .1.1.1 0 0 0 .1 0 .1-.1v-.1c0-.1 0-.1-.1-.1-.2-.1-.3-.3-.3-.4 0-.2 0-.4.2-.6.1-.2.3-.4.5-.5s.3 0 .5.1.2.2.2.3c0 .1-.1.4-.3.8-.2.5-.2.8-.2 1.1.1.2.2.3.4.5.3.2.5.2.7.1s.5-.3.6-.6c.1-.2.2-.5.2-.7V75c.1.1.2.1.3 0 .1 0 .2-.2.3-.4.1-.1 0-.2-.1-.2-.1-.1-.2 0-.2.1s-.1.1-.1.1h-.2l-1.7-1c-.3-.2-.5-.2-.8-.1.1.1-.1.4-.3.7M71.7 68.2s0-.1 0 0c.1-.1.2-.1.2-.1l2 1.1c.1 0 .1.1.1.1v.1l-.7 1.3c0 .1-.1.1-.1.1s-.1 0-.1-.1c-.1-.2-.3-.5-.6-.7-.3-.3-.7-.6-1.1-.9-.1 0-.1-.1-.1-.1v-.2l.4-.6zm-.7.6c-.1.1-.1.3-.1.3 0 .1.1.2.2.3.5.3.9.6 1.2.9.3.3.5.7.7 1.1v.2l.1.1.6.4c.1.1.1 0 .2 0v-.2c-.2-.2-.4-.3-.4-.5v-.3l.8-1.5c.1-.1.2-.2.4-.3h.7c.1 0 .1 0 .1-.1s0-.1-.1-.2l-.5-.2c-.1 0-.1-.1-.2-.1s-.1 0-.2.1-.2.1-.3.1c-.1 0-.1 0-.2-.1l-2-1.2c-.1-.1-.2-.1-.3 0-.1 0-.2.1-.3.3l-.4.9zM73.2 64.7c-.2.4-.3.8-.1 1.3.2.4.5.7.9.9.4.2.8.3 1.2.3.5-.1.8-.3 1-.7.2-.4.3-.8.1-1.3-.2-.4-.4-.7-.9-.9-.4-.2-.8-.3-1.2-.3s-.7.2-1 .7zm.3.1c.2-.3.4-.5.8-.5.3 0 .6.1 1 .3.3.2.6.4.7.7.2.3.1.6 0 .9-.2.3-.5.5-.8.5s-.6-.1-1-.3c-.3-.2-.6-.4-.7-.7-.2-.2-.2-.6 0-.9M78.4 63.8h.2c.1 0 .1 0 .1-.1v-.1c0-.1-.1-.1-.1-.1l-.9-.5c.2 0 .3-.1.5-.2s.4-.3.5-.5c.2-.4.3-.8.1-1.2-.2-.4-.4-.7-.9-.9-.4-.2-.8-.3-1.2-.3-.4 0-.8.3-1 .7-.1.2-.2.4-.2.6 0 .2 0 .4.1.6l-.4-.2c-.1-.1-.2 0-.2.1-.1.1 0 .2 0 .2l3.4 1.9zm-2.5-3.1c.2-.3.4-.5.8-.5.3 0 .6.1 1 .3.3.2.6.4.7.7.2.3.1.6 0 .9-.2.3-.4.5-.8.5-.3 0-.6-.1-1-.3-.3-.2-.6-.4-.7-.7-.2-.3-.2-.6 0-.9M77.9 56.6c-.2.4-.3.8-.1 1.3.2.4.5.7.9.9s.8.3 1.2.3c.5-.1.8-.3 1-.7s.3-.8.1-1.3c-.2-.4-.4-.7-.9-.9-.4-.2-.8-.3-1.2-.3-.4 0-.8.2-1 .7zm.3.1c.2-.3.4-.5.8-.5.3 0 .6.1 1 .3.3.2.6.4.7.7.2.3.1.6 0 .9-.2.3-.5.5-.8.5s-.6-.1-1-.3c-.3-.2-.6-.4-.7-.7-.2-.2-.2-.6 0-.9M80.2 52.6c-.2.3-.2.6-.2.8 0 .3.1.5.3.6.1.1.2 0 .3-.1.1-.1 0-.2-.1-.3s-.2-.2-.2-.4c0-.1.1-.3.2-.5s.3-.4.4-.4c.2-.1.3 0 .5.1s.3.2.2.4c0 .2-.1.4-.2.6v.2s0 .1.1.1h.1c.1 0 .1 0 .1-.1.1-.3.3-.4.4-.5.2-.1.4-.1.6 0s.3.3.3.5 0 .4-.2.7c-.1.2-.3.4-.5.5s-.3 0-.5-.1h-.2s-.1 0-.1.1v.1c0 .1.1.1.1.1.3.1.6.2.8 0 .2-.1.5-.3.6-.6.2-.4.3-.7.2-1 0-.3-.2-.5-.5-.7-.2-.1-.4-.1-.6-.1-.1 0-.3.1-.4.2v-.3c-.1-.2-.2-.3-.4-.4-.2-.1-.5-.2-.8-.1.1.1-.2.3-.3.6M81.9 50l2.7 1.6h.2s.1 0 .1-.1v-.1c0-.1 0-.1-.1-.1l-2.7-1.6H82s-.1 0-.1.1v.2c-.1-.1-.1 0 0 0zm-1.1-.9c0 .1-.1.2 0 .2 0 .1.1.1.2.2.1 0 .1.1.2 0 .1 0 .2-.1.2-.1 0-.1.1-.2 0-.2 0-.1-.1-.1-.1-.2H81c-.1 0-.2 0-.2.1M85.2 44.8c0-.1.1-.1 0 0 .1-.1.2-.1.2-.1l2 1.1c.1 0 .1.1.1.1v.1l-.7 1.3c0 .1-.1.1-.1.1s-.1 0-.1-.1c-.1-.2-.3-.5-.6-.7-.3-.3-.7-.6-1.1-.9-.1 0-.1-.1-.1-.1v-.2l.4-.6zm-.7.6c-.1.1-.1.3-.1.3 0 .1.1.2.2.2.5.3.9.6 1.2.9.3.3.5.7.7 1.1v.2l.1.1.6.4c.1.1.1 0 .2 0v-.2c-.2-.2-.4-.3-.4-.5v-.3l.8-1.5c.1-.1.2-.2.4-.3h.7c.1 0 .1 0 .1-.1s0-.1-.1-.2l-.5-.2c-.1 0-.1-.1-.2-.1s-.1 0-.2.1-.2.1-.3.1c-.1 0-.1 0-.2-.1l-2-1.2c-.1-.1-.2-.1-.3 0-.1 0-.2.1-.3.3l-.4 1zM86.7 41.2c-.2.4-.3.8-.1 1.3.2.4.5.7.9.9s.8.3 1.2.3c.5-.1.8-.3 1-.7s.3-.8.1-1.3c-.2-.4-.4-.7-.9-.9-.4-.2-.8-.3-1.2-.3-.4.1-.7.3-1 .7zm.3.2c.2-.3.4-.5.8-.5.3 0 .6.1 1 .3.3.2.6.4.7.7.2.3.1.6 0 .9-.2.3-.5.5-.8.5s-.6-.1-1-.3c-.3-.2-.6-.4-.7-.7-.2-.3-.2-.6 0-.9M89.8 36.1c-.1.1-.1.2-.1.3s.1.2.2.2l2.2 1.2c.1.1.2.1.3.1.1 0 .2-.1.3-.2l.7-1.2c.1-.2.2-.5.2-.7 0-.3-.2-.5-.4-.6-.2-.1-.3-.1-.5-.1s-.3.1-.4.2c0-.2 0-.3-.1-.5l-.3-.3c-.2-.1-.5-.2-.7-.1-.2.1-.4.3-.6.6l-.8 1.1zm1.5 1 .6-1.1c.1-.2.2-.3.4-.4.2-.1.3-.1.5 0s.3.2.3.4 0 .4-.1.6l-.5.9c0 .1-.1.1-.1.1h-.2l-.9-.5zm-.3-.2-.7-.4c-.1 0-.1-.1-.1-.1v-.2l.5-.8c.1-.2.2-.3.4-.4.1-.1.3 0 .4.1l.3.3c0 .1 0 .3-.1.5l-.7 1zM95 31.8c.1.2.2.4.2.5 0 .2 0 .4-.1.6-.2.3-.4.4-.7.4-.3 0-.6-.1-.9-.2l1.2-2.1h-.1c-.4-.2-.8-.3-1.2-.3-.4 0-.8.3-1 .6-.2.4-.2.8-.1 1.2.2.4.5.7.9.9s.8.3 1.2.3c.4 0 .8-.3 1-.6s.2-.5.2-.8-.1-.5-.3-.8c0-.1-.1-.1-.1-.1h-.1l-.1.1v.3zM93.2 33c-.2-.2-.4-.4-.5-.6-.1-.3-.1-.6 0-.8.2-.3.4-.4.7-.4.3 0 .5 0 .8.2l-1 1.6zM97.5 30.7h.2c.1 0 .1 0 .1-.1v-.1c0-.1-.1-.1-.1-.1l-.9-.5c.2 0 .3-.1.5-.2s.4-.3.5-.5c.2-.4.3-.8.1-1.2-.2-.4-.4-.7-.9-.9-.4-.2-.8-.3-1.2-.3-.4 0-.8.3-1 .7-.1.2-.2.4-.2.6s0 .4.1.6l-.4-.2c-.1-.1-.2 0-.2.1-.1.1 0 .2 0 .2l3.4 1.9zM95 27.6c.2-.3.4-.5.8-.5.3 0 .6.1 1 .3.3.2.6.4.7.7.2.3.1.6 0 .9-.2.3-.4.5-.8.5-.3 0-.6-.1-1-.3-.3-.2-.6-.4-.7-.7-.2-.3-.2-.6 0-.9M98.5 21.3h-.2s-.1 0-.1.1v.1c0 .1 0 .1.1.1l2.2 1.3.2.2c0 .1 0 .1-.1.2l-.5.9-2.5-1.4h-.2s-.1 0-.1.1v.1c0 .1 0 .1.1.1l2.5 1.4-.6 1-.2.2c-.1 0-.1 0-.2-.1l-2.2-1.3h-.2s-.1 0-.1.1v.1c0 .1 0 .1.1.1l2.2 1.3c.2.1.4.1.5.1.2 0 .3-.1.4-.3l1.3-2.2c.1-.2.1-.4.1-.5 0-.2-.2-.3-.3-.4l-2.2-1.3zM100.8 17.2h-.2c-.1 0-.1 0-.1.1v.1c0 .1.1.1.1.1l.1.1 1 2.8-2.1-1.2h-.1s-.1 0-.1.1v.1s0 .1.1.1l2.7 1.6h.1s.1 0 .1-.1v-.1c0-.1 0-.1-.1-.1l-.2-.1-1-2.8 2.1 1.2h.2c.1 0 .1 0 .1-.1v-.1c0-.1 0-.1-.1-.1l-2.6-1.6zM101.8 15.5l2.6 1.5h.2c.1 0 .1 0 .1-.1v-.1c0-.1-.1-.1-.1-.1l-1.2-.7 1-1.7 1.2.7h.2s.1 0 .1-.1v-.1c0-.1 0-.1-.1-.1l-2.7-1.5h-.2s-.1 0-.1.1v.1s0 .1.1.1l1.2.7-1 1.7-1.1-.7h-.2c-.1 0-.1 0-.1.1v.1c0 .1.1.1.1.1M105.5 9.1h-.2c-.1 0-.1 0-.1.1v.1c0 .1.1.1.1.1l.1.1 1 2.8-2.1-1.2h-.1s-.1 0-.1.1v.1s0 .1.1.1l2.7 1.6h.1s.1 0 .1-.1v-.1c0-.1 0-.1-.1-.1l-.2-.1-1-2.8L108 11h.2c.1 0 .1 0 .1-.1v-.1c0-.1 0-.1-.1-.1l-2.7-1.6zM145.3 79.2l2.7 4.6-.2.1h-.3l-2.8-4.8h.6v.1zm-36.8-62.3.2.1 1.9 3.3.5-.3-2-3.5-.3-.2-.3.6zm3 4.9.5-.3 2.8 4.9-.5.3-2.8-4.9zm3.7 6.4.5-.3 2.8 4.9-.5.3-2.8-4.9zm3.6 6.4.5-.3 2.8 4.9-.5.3-2.8-4.9zm3.7 6.3.5-.3 2.8 4.9-.5.3-2.8-4.9zm3.7 6.4.5-.3 2.8 4.9-.5.3-2.8-4.9zm3.7 6.4.5-.3 2.8 4.9-.5.3-2.8-4.9zm3.7 6.4.5-.3 2.8 4.9h-.7l-2.6-4.6zM135.1 66.5h-1.7l6 10.3h1.7l-6-10.3zM138.5 66.5h-1.7l6 10.3h1.7l-6-10.3zM141.8 66.5H140l6 10.3h1.7l-5.9-10.3z" class="st0"/></svg>