<svg xmlns="http://www.w3.org/2000/svg" xml:space="preserve" id="Шар_1" x="0" y="0" version="1.1" viewBox="0 0 121.6 98.5"><style>.st0{fill:#231f20}.st2{fill:#fff}</style><path d="m16.9 97.5 6-10.3H11L5 97.5h11.9zM24.7 84l41.9-72.7-6-10.3-47.9 83h12z" class="st0"/><path fill="#960d13" d="m81.1 84-2.3-4h11.9l2.3 4H81.1zM77 76.9l-6-10.3h12l6 10.3H77zm-7.7-13.4-8.6-14.9L52 63.5H40.1l14.6-25.3 6-10.3 20.6 35.6h-12zm-19 3.1-6 10.3h-12l6-10.3h12zM42.5 80l-2.3 4H28.3l2.3-4h11.9z"/><path d="m104.4 97.5-6-10.3h11.9l6 10.3h-11.9zM96.6 84 54.7 11.4l6-10.3 47.9 83-12-.1z" class="st0"/><path d="M120 97.5H1.4l6-10.3H114l6 10.3z" class="st0"/><path d="M88.9 76.9H32.3l6-10.3H83l5.9 10.3z"/><path d="m42.9 68.1 1.1 7.3h-2l-.1-1.3h-.7l-.1 1.3h-2l1-7.3h2.8zm-1 4.7c-.1-.8-.2-1.8-.3-3.1-.2 1.4-.3 2.4-.4 3.1h.7zM44.3 68.1h1.9c.6 0 1 0 1.3.1s.6.3.7.6c.2.3.3.7.3 1.4 0 .4-.1.7-.2.9-.1.2-.4.3-.8.4.4.1.7.3.9.5s.2.6.2 1.1v.7c0 .5-.1.9-.2 1.1-.1.2-.3.4-.5.5s-.7.1-1.5.1h-2.2l.1-7.4zm1.9 1.3V71h.2c.2 0 .3 0 .3-.1.1-.1.1-.4.1-.8 0-.2 0-.4-.1-.5 0-.1-.1-.1-.2-.2h-.3zm0 2.7v2c.3 0 .4-.1.5-.1.1-.1.1-.3.1-.6v-.7c0-.3 0-.5-.1-.6-.1.1-.2 0-.5 0M53.2 68.1v1.5h-1.1v5.8h-1.9v-5.8H49v-1.5h4.2zM57.9 72.4c0 .7 0 1.2-.1 1.5 0 .3-.1.6-.3.8-.2.3-.4.4-.7.6-.3.1-.7.2-1.1.2-.4 0-.7-.1-1-.2s-.6-.3-.7-.6c-.2-.3-.3-.5-.3-.8s-.1-.8-.1-1.6v-1.2c0-.7 0-1.2.1-1.5 0-.3.1-.6.3-.8.2-.3.4-.4.7-.6.3-.1.7-.2 1.1-.2.4 0 .7.1 1 .2s.6.3.7.6c.2.3.3.5.3.8s.1.8.1 1.6v1.2zM56 70c0-.3 0-.6-.1-.6 0-.1-.1-.1-.2-.1s-.2 0-.2.1c-.1.1-.1.3-.1.7v3.4c0 .4 0 .7.1.8 0 .1.1.1.2.1s.2-.1.2-.2.1-.4.1-.8V70zM65.6 76.6h-1.3v-1.2h-3v1.2H60v-2.8h.4c.2-.6.4-1.4.5-2.3.1-1 .2-2 .2-3.2v-.2h4.2v5.7h.4v2.8h-.1zm-2.3-2.7v-4.3h-.6v.1c0 1.4-.2 2.8-.4 4.3l1-.1zM68.1 68.1v7.3h-1.9v-7.3h1.9zM73.5 75.4h-1.9v-5.8H71v4.1c0 .5-.1.9-.2 1.2-.1.2-.4.4-.6.4-.3.1-.7.1-1.4.1h-.3v-1.2c.2 0 .4 0 .5-.1s.1-.3.1-.6v-5.3h4.3l.1 7.2zM74.2 68.1h3.1v1.5H76V71h1.2v1.4H76V74h1.4v1.5h-3.3v-7.4h.1zM78 68.1h1.9c.5 0 .9 0 1.2.1.3.1.5.2.6.3.1.2.2.3.3.6 0 .2.1.6.1 1v.6c0 .5 0 .8-.1 1s-.3.4-.5.5c-.3.1-.6.2-1 .2H80v2.9h-2v-7.2zm1.9 1.3v1.8h.1c.2 0 .3 0 .4-.1s.1-.3.1-.5V70c0-.2 0-.4-.1-.5s-.2-.1-.5-.1M24.8 91.2h.1v2.5h-1.6s0-.1.1-.2c.1-.2.3-.5.4-.9s.2-.9.2-1.4v-.1h.1l.7.1zm-.8-.3c-.2 0-.3 0-.4.1s-.1.2-.1.3c0 .6-.1 1.1-.2 1.5s-.3.8-.6 1.1l-.1.1-.1.1V94.9c0 .1 0 .1.1.1s.1-.1.1-.1c0-.3.1-.5.2-.6s.2-.1.3-.1h1.7c.2 0 .3.1.4.2s.2.3.3.6c0 .1.1.1.1.1.1 0 .1-.1.1-.1v-.7l-.1-.1c-.1 0-.2-.1-.2-.2V91.4c0-.1 0-.2-.1-.3-.1-.1-.2-.1-.4-.1l-1-.1zM30.3 93.2c-.1.2-.2.4-.3.5-.2.1-.4.2-.6.2-.3 0-.6-.1-.7-.4-.2-.2-.2-.5-.3-.9h2.4v-.1c0-.5-.1-.9-.4-1.2-.3-.4-.6-.5-1.1-.5-.4 0-.8.2-1 .5-.2.3-.3.7-.3 1.2s.1.9.4 1.2c.3.4.6.5 1 .5.3 0 .6-.1.8-.2.2-.2.4-.4.5-.7v-.2l-.1-.1h-.2c0 .1 0 .2-.1.2zm-1.9-.9c0-.3.1-.6.3-.8.2-.3.4-.4.7-.4.3 0 .5.1.7.4.2.2.2.5.3.8h-2zM36.1 90.9h-2.7c-.1 0-.2.1-.2.2s.1.2.2.2h1.2v2.9c0 .1 0 .1.1.2h.1s.1 0 .1-.1l.1-.1v-2.9h1.2c.1 0 .1 0 .1-.1V91c-.1-.1-.2-.1-.2-.1M40.7 93.4c-.1.2-.2.3-.4.4s-.4.2-.7.2c-.2 0-.4-.1-.6-.2-.1-.1-.2-.3-.2-.4 0-.2.1-.4.2-.5.1-.1.3-.2.7-.2.3 0 .5-.1.7-.1.1 0 .2-.1.3-.1v.9zm-.8-2.6c-.3 0-.6.1-.8.2-.2.2-.3.4-.4.7v.1l.1.1h.1l.1-.1c0-.2.1-.4.2-.5.1-.1.3-.2.6-.2s.5.1.6.2.2.3.2.5-.1.3-.2.4c-.1.1-.4.1-.8.2-.5.1-.8.2-1 .4-.1.1-.2.4-.2.6 0 .3.1.5.3.7s.5.3.8.3.5 0 .7-.1.3-.2.4-.3c0 .1 0 .2.1.3.1.1.2.1.5.1.1 0 .2-.1.2-.2s-.1-.2-.2-.2-.1 0-.2-.1c0 0-.1-.1-.1-.2v-1.9c0-.3-.1-.6-.4-.7 0-.3-.3-.3-.6-.3M44.7 90.9c-.2 0-.3 0-.4.1-.1.1-.1.2-.1.3v1.6c0 .4 0 .6-.1.8-.1.2-.3.3-.6.3-.1 0-.1 0-.1.1s.1.1.2.1c.4 0 .7-.2.8-.4.1-.2.2-.5.2-.9V91.3s.1-.1.2-.1h1.1V94c0 .1 0 .1.1.2h.1s.1 0 .1-.1l.1-.1v-2.8c0-.1 0-.2-.1-.3-.1-.1-.2-.1-.3-.1h-1.2v.1zM56 91.2c.1 0 .1 0 0 0l.1 2.4v.1h-1.6s0-.1.1-.2c.1-.2.3-.5.4-.9.1-.4.2-.9.2-1.4v-.1h.1l.7.1zm-.8-.3c-.2 0-.3 0-.4.1-.1.1-.1.2-.1.3 0 .6-.1 1.1-.2 1.5-.1.4-.3.8-.6 1.1l-.1.1-.1.1V94.9c0 .1 0 .1.1.1s.1-.1.1-.1c0-.3.1-.5.2-.6.1-.1.2-.1.3-.1h1.7c.2 0 .3.1.4.2.1.1.2.3.3.6 0 .1.1.1.1.1.1 0 .1-.1.1-.1v-.7l-.1-.1c-.1 0-.2-.1-.2-.2V91.4c0-.1 0-.2-.1-.3-.1-.1-.2-.1-.4-.1l-1-.1zM60.7 90.8c-.5 0-.9.2-1.1.5-.2.3-.4.7-.4 1.2s.1.9.4 1.2c.3.4.7.5 1.1.5.5 0 .9-.2 1.1-.5.2-.3.4-.7.4-1.2s-.1-.9-.4-1.2c-.2-.4-.6-.5-1.1-.5zm0 .3c.4 0 .6.1.8.4s.3.6.3 1-.1.7-.3 1-.5.4-.8.4c-.4 0-.6-.1-.9-.4-.2-.3-.3-.6-.3-1s.1-.7.3-1c.3-.3.5-.4.9-.4M67 91v3c0 .1 0 .1.1.2l.1.1s.1 0 .1-.1c0 0 .1-.1.1-.2v-2.6l1.2 2.7c0 .1.1.2.2.2s.2-.1.3-.2l1.1-2.7V94c0 .1 0 .1.1.2l.1.1c.1 0 .1 0 .1-.1 0 0 .1-.1.1-.2v-3c0-.1 0-.2-.1-.2 0 0-.1-.1-.2-.1s-.1 0-.2.1c-.1 0-.1.1-.1.2l-1.2 2.7-1.2-2.7c0-.1-.1-.1-.1-.2-.1 0-.1-.1-.2 0-.1 0-.1 0-.2.1-.1 0-.1.1-.1.1M75.3 93.4c-.1.2-.2.3-.4.4-.2.1-.4.2-.7.2-.2 0-.4-.1-.6-.2-.1-.1-.2-.3-.2-.4 0-.2.1-.4.2-.5s.3-.2.7-.2c.3 0 .5-.1.7-.1.1 0 .2-.1.3-.1v.9zm-.8-2.6c-.3 0-.6.1-.8.2-.2.2-.3.4-.4.7v.1l.1.1h.1l.1-.1c0-.2.1-.4.2-.5s.3-.2.6-.2.5.1.6.2.2.3.2.5-.1.3-.2.4-.4.1-.8.2c-.5.1-.8.2-1 .4-.1.1-.2.4-.2.6 0 .3.1.5.3.7.2.2.5.3.8.3s.5 0 .7-.1.3-.2.4-.3c0 .1 0 .2.1.3.1.1.2.1.5.1.1 0 .2-.1.2-.2s-.1-.2-.2-.2-.1 0-.2-.1c0 0-.1-.1-.1-.2v-1.9c0-.3-.1-.6-.4-.7 0-.3-.2-.3-.6-.3M82.5 90.9c0-.1 0-.1 0 0l-.2-.1h-.1l-.1.1v2.6c0 .1 0 .2-.1.2 0 0-.1.1-.2.1h-1v-2.9c0-.1 0-.1-.1-.1h-.2l-.1.1v2.9h-1.1c-.1 0-.2 0-.2-.1 0 0-.1-.1-.1-.2V91c0-.1 0-.1-.1-.1h-.2l-.1.1v2.5c0 .2.1.4.2.5s.3.2.5.2h2.6c.2 0 .4-.1.5-.2s.2-.3.2-.5v-2.6h-.1zM88 91c0-.1 0-.1-.1-.2l-.1-.1h-.1s-.1.1-.1.2v.1l-1.9 2.3v-2.5c0-.1 0-.1-.1-.1h-.2l-.1.1V94c0 .1 0 .1.1.1h.2l.1-.1v-.2l1.9-2.3v2.4c0 .1 0 .1.1.2l.1.1c.1 0 .1 0 .1-.1 0 0 .1-.1.1-.2V91zM90.7 91v3c0 .1 0 .1.1.2l.1.1s.1 0 .1-.1c0 0 .1-.1.1-.2v-1.4h2V94c0 .1 0 .1.1.2h.2s.1-.1.1-.2v-3c0-.1 0-.1-.1-.2h-.2l-.1.1v1.3h-2V91c0-.1 0-.1-.1-.2l-.1-.1h-.1c0 .1-.1.2-.1.3M99 91c0-.1 0-.1-.1-.2l-.1-.1h-.1s-.1.1-.1.2v.1l-1.9 2.3v-2.5c0-.1 0-.1-.1-.1h-.2l-.1.1V94c0 .1 0 .1.1.1h.2l.1-.1v-.2l1.9-2.3v2.4c0 .1 0 .1.1.2l.1.1c.1 0 .1 0 .1-.1 0 0 .1-.1.1-.2V91zM49 90.9V94c0 .1 0 .1.1.2h.1c.1 0 .1 0 .1-.1l.1-.1v-3.1c0-.1 0-.1-.1-.1h-.1c-.1 0-.1 0-.2.1zm.2-1.4c-.1 0-.2 0-.2.1s-.1.1-.1.2 0 .2.1.2c.1.1.1.1.2.1s.2 0 .2-.1c.1-.1.1-.1.1-.2s0-.2-.1-.2c0 0-.1-.1-.2-.1M19.9 79.4l2.6 1.5h.2c.1 0 .1 0 .1-.1v-.1c0-.1-.1-.1-.1-.1l-1.2-.7 1-1.7 1.2.7h.2s.1 0 .1-.1v-.1c0-.1 0-.1-.1-.1L21.2 77H21s-.1 0-.1.1v.1s0 .1.1.1l1.2.7-1 1.7-1.2-.6h-.2c-.1 0-.1 0-.1.1v.1c.1 0 .1.1.2.1M25.3 74.8c.1.2.1.3.1.6 0 .2-.1.5-.2.7s-.3.4-.4.4-.3 0-.5-.1-.3-.3-.3-.4c0-.2 0-.4.1-.7.1-.3.2-.5.2-.7v-.3l1 .5zm-2.7-.6c-.2.3-.2.6-.2.8 0 .3.2.5.4.7 0 0 .1.1.1 0 0 0 .1 0 .1-.1v-.1c0-.1 0-.1-.1-.1-.2-.1-.3-.3-.3-.4 0-.2 0-.4.2-.6.1-.2.3-.4.5-.5s.3 0 .5.1.2.2.2.3c0 .1-.1.4-.3.8-.2.5-.2.8-.2 1.1.1.2.2.3.4.5.3.2.5.2.7.1s.5-.3.6-.6c.1-.2.2-.5.2-.7V75c.1.1.2.1.3 0 .1 0 .2-.2.3-.4.1-.1 0-.2-.1-.2-.1-.1-.2 0-.2.1s-.1.1-.1.1h-.2l-1.7-1c-.3-.2-.5-.2-.8-.1.1.2-.1.4-.3.7M26.5 68.3c.1-.1.1-.1 0 0 .1-.1.2-.1.2-.1l2 1.1c.1 0 .1.1.1.1v.1l-.7 1.3c0 .1-.1.1-.1.1s-.1 0-.1-.1c-.1-.2-.3-.5-.6-.7-.3-.3-.7-.6-1.1-.9-.1 0-.1-.1-.1-.1v-.2l.4-.6zm-.7.5c-.1.1-.1.3-.1.3 0 .1.1.2.2.3.5.3.9.6 1.2.9.3.3.5.7.7 1.1v.2l.1.1.6.4c.1.1.1 0 .2 0v-.2c-.2-.2-.4-.3-.4-.5v-.3l.8-1.5c.1-.1.2-.2.4-.3h.7c.1 0 .1 0 .1-.1s0-.1-.1-.2h-.4c-.1 0-.1-.1-.2-.1s-.1 0-.2.1-.2.1-.3.1c-.1 0-.1 0-.2-.1l-2-1.2c-.1-.1-.2-.1-.3 0-.1 0-.2.1-.3.3l-.5.7zM28.1 64.7c-.2.4-.3.8-.1 1.3.2.4.5.7.9.9.4.2.8.3 1.2.3.5-.1.8-.3 1-.7.2-.4.3-.8.1-1.3-.2-.4-.4-.7-.9-.9-.4-.2-.8-.3-1.2-.3-.4 0-.8.3-1 .7zm.3.2c.2-.3.4-.5.8-.5.3 0 .6.1 1 .3.3.2.6.4.7.7.2.3.1.6 0 .9-.2.3-.5.5-.8.5s-.6-.1-1-.3c-.3-.2-.6-.4-.7-.7-.2-.3-.2-.6 0-.9M33.3 63.9h.2c.1 0 .1 0 .1-.1v-.1c0-.1-.1-.1-.1-.1l-1-.6c.2 0 .3-.1.5-.2s.4-.3.5-.5c.2-.4.3-.8.1-1.2s-.4-.7-.9-.9c-.4-.2-.8-.3-1.2-.3-.4 0-.8.3-1 .7-.1.2-.2.4-.2.6 0 .2 0 .4.1.6l-.4-.2c-.1-.1-.2 0-.2.1-.1.1 0 .2 0 .2l3.5 2zm-2.5-3.2c.2-.3.4-.5.8-.5.3 0 .6.1 1 .3.3.2.6.4.7.7.2.3.1.6 0 .9-.2.3-.4.5-.8.5-.3 0-.6-.1-1-.3-.3-.2-.6-.4-.7-.7-.2-.2-.2-.6 0-.9M32.8 56.6c-.2.4-.3.8-.1 1.3.2.4.5.7.9.9s.8.3 1.2.3c.5-.1.8-.3 1-.7s.3-.8.1-1.3c-.2-.4-.4-.7-.9-.9-.4-.2-.8-.3-1.2-.3-.4 0-.8.3-1 .7zm.3.2c.2-.3.4-.5.8-.5.3 0 .6.1 1 .3.3.2.6.4.7.7.2.3.1.6 0 .9-.2.3-.5.5-.8.5s-.6-.1-1-.3c-.3-.2-.6-.4-.7-.7-.2-.3-.2-.6 0-.9M35.1 52.6c-.2.3-.2.6-.2.8 0 .3.1.5.3.6.1.1.2 0 .3-.1s0-.2-.1-.3-.2-.2-.2-.4c0-.1.1-.3.2-.5s.3-.4.4-.4c.2-.1.3 0 .5.1s.3.2.2.4c0 .2-.1.4-.2.6v.2s0 .1.1.1h.1c.1 0 .1 0 .1-.1.1-.3.3-.4.4-.5.2-.1.4-.1.6 0 .2.1.3.3.3.5s0 .4-.2.7c-.1.2-.3.4-.5.5s-.3 0-.5-.1h-.2s-.1 0-.1.1v.1c0 .1.1.1.1.1.3.1.6.2.8 0 .2-.1.5-.3.6-.6.2-.4.3-.7.2-1 0-.3-.2-.5-.5-.7-.2-.1-.4-.1-.6-.1-.1 0-.3.1-.4.2v-.3c-.1-.2-.2-.3-.4-.4-.2-.1-.5-.2-.8-.1 0 .2-.2.4-.3.6M36.8 50l2.7 1.6h.2s.1 0 .1-.1v-.1c0-.1 0-.1-.1-.1L37 49.7h-.1s-.1 0-.1.1v.1c-.1.1-.1.1 0 .1zm-1.2-.8c0 .1-.1.2 0 .2 0 .1.1.1.2.2.1 0 .1.1.2 0 .1 0 .2-.1.2-.1 0-.1.1-.2 0-.2 0-.1-.1-.1-.1-.2-.1 0-.2-.1-.2 0-.1-.1-.2 0-.3.1M40.1 44.8c.1-.1.2-.1.2-.1l2 1.1c.1 0 .1.1.1.1v.1l-.7 1.3c0 .1-.1.1-.1.1s-.1 0-.1-.1c-.1-.2-.3-.5-.6-.7-.3-.3-.7-.6-1.1-.9-.1 0-.1-.1-.1-.1v-.2l.4-.6zm-.7.6c-.1.1-.1.3-.1.3 0 .1.1.2.2.2.5.3.9.6 1.2.9.3.3.5.7.7 1.1v.2l.1.1.6.4c.1.1.1 0 .2 0v-.2c-.2-.2-.4-.3-.4-.5v-.3l.8-1.5c.1-.1.2-.2.4-.3h.7c.1 0 .1 0 .1-.1s0-.1-.1-.2l-.5-.2c-.1 0-.1-.1-.2-.1s-.1 0-.2.1-.2.1-.3.1-.1 0-.2-.1l-2-1.2c-.1-.1-.2-.1-.3 0-.1 0-.2.1-.3.3l-.4 1zM41.6 41.3c-.2.4-.3.8-.1 1.3.2.4.5.7.9.9s.8.3 1.2.3c.5-.1.8-.3 1-.7s.3-.8.1-1.3c-.2-.4-.4-.7-.9-.9-.4-.2-.8-.3-1.2-.3-.4 0-.7.3-1 .7zm.3.1c.2-.3.4-.5.8-.5.3 0 .6.1 1 .3.3.2.6.4.7.7.2.3.1.6 0 .9-.2.3-.5.5-.8.5s-.6-.1-1-.3c-.3-.2-.6-.4-.7-.7-.2-.2-.2-.5 0-.9M44.7 36.2c-.1.1-.1.2-.1.3s.1.2.2.2L47 38c.1.1.2.1.3.1s.2-.1.3-.2l.7-1.2c.1-.2.2-.5.2-.7 0-.3-.2-.5-.4-.6s-.3-.1-.5-.1-.3.1-.4.2c0-.2 0-.3-.1-.5l-.3-.3c-.2-.1-.5-.2-.7-.1-.2.1-.4.3-.6.6l-.8 1zm1.5.9.6-1.1c.1-.2.2-.3.4-.4.2-.1.3-.1.5 0s.3.2.3.4 0 .4-.1.6l-.5.9c0 .1-.1.1-.1.1h-.2l-.9-.5zm-.3-.2-.7-.4c-.1 0-.1-.1-.1-.1v-.2l.5-.8c.1-.2.2-.3.4-.4.1-.1.3 0 .4.1l.3.3c0 .1 0 .3-.1.5l-.7 1zM49.9 31.9c.1.2.2.4.2.5 0 .2 0 .4-.1.6-.2.3-.4.4-.7.4s-.6-.1-.9-.2l1.2-2.1h-.1c-.4-.2-.8-.3-1.2-.3s-.8.3-1 .6c-.2.4-.2.8-.1 1.2.2.4.5.7.9.9s.8.3 1.2.3.8-.3 1-.6.2-.5.2-.8-.1-.5-.3-.8c0-.1-.1-.1-.1-.1H50l-.1.1c-.1.2 0 .2 0 .3zm-1.8 1.2c-.2-.2-.4-.4-.5-.6-.1-.3-.1-.6 0-.8.2-.3.4-.4.7-.4s.5 0 .8.2l-1 1.6zM52.4 30.7h.2c.1 0 .1 0 .1-.1v-.1c0-.1-.1-.1-.1-.1l-.9-.5c.2 0 .3-.1.5-.2s.4-.3.5-.5c.2-.4.3-.8.1-1.2-.2-.4-.4-.7-.9-.9-.4-.2-.8-.3-1.2-.3s-.8.3-1 .7c-.1.2-.2.4-.2.6s0 .4.1.6l-.4-.2c-.1-.1-.2 0-.2.1-.1.1 0 .2 0 .2l3.4 1.9zm-2.5-3.1c.2-.3.4-.5.8-.5.3 0 .6.1 1 .3.3.2.6.4.7.7.2.3.1.6 0 .9-.2.3-.4.5-.8.5-.3 0-.6-.1-1-.3-.3-.2-.6-.4-.7-.7-.2-.3-.2-.6 0-.9M53.4 21.3h-.2s-.1 0-.1.1v.1c0 .1 0 .1.1.1l2.2 1.3.2.2c0 .1 0 .1-.1.2l-.5.9-2.5-1.4h-.2s-.1 0-.1.1v.1c0 .1 0 .1.1.1l2.5 1.4-.6 1-.2.2c-.1 0-.1 0-.2-.1l-2.2-1.3h-.2s-.1 0-.1.1v.1c0 .1 0 .1.1.1l2.2 1.3c.2.1.4.1.5.1.2 0 .3-.1.4-.3l1.3-2.2c.1-.2.1-.4.1-.5 0-.2-.2-.3-.3-.4l-2.2-1.3zM55.7 17.3h-.2c-.1 0-.1 0-.1.1v.1c0 .1.1.1.1.1l.1.1 1 2.8-2.1-1.2h-.1s-.1 0-.1.1v.1s0 .1.1.1l2.7 1.6h.1s.1 0 .1-.1V21c0-.1 0-.1-.1-.1l-.2-.1-1-2.8 2.1 1.2h.2c.1 0 .1 0 .1-.1V19c0-.1 0-.1-.1-.1l-2.6-1.6zM56.7 15.6l2.6 1.5h.2c.1 0 .1 0 .1-.1v-.1c0-.1-.1-.1-.1-.1l-1.2-.7 1-1.7 1.2.7h.2s.1 0 .1-.1v-.1c0-.1 0-.1-.1-.1L58 13.3h-.2s-.1 0-.1.1v.1s0 .1.1.1l1.2.7-1 1.7-1.1-.7h-.2c-.1 0-.1 0-.1.1v.1s.1 0 .1.1M60.4 9.2h-.2c-.1 0-.1 0-.1.1v.1c0 .1.1.1.1.1l.1.1 1 2.8-2.1-1.2h-.1s-.1 0-.1.1v.1s0 .1.1.1l2.7 1.6h.1s.1 0 .1-.1v-.1c0-.1 0-.1-.1-.1l-.2-.1-1-2.8 2.1 1.2h.2c.1 0 .1 0 .1-.1v-.1c0-.1 0-.1-.1-.1l-2.6-1.6zM100.2 79.3l2.7 4.6-.2.1h-.3l-2.8-4.8h.6v.1zM63.4 16.9l.2.1 1.9 3.3.5-.3-2-3.5-.3-.2-.3.6zm2.9 4.9.5-.3 2.8 4.9-.5.3-2.8-4.9zm3.7 6.4.5-.3 2.8 4.9-.5.3-2.8-4.9zm3.7 6.4.5-.3 2.8 4.9-.5.3-2.8-4.9zm3.7 6.4.5-.3 2.8 4.9-.5.3-2.8-4.9zm3.7 6.4.5-.3 2.8 4.9-.5.3-2.8-4.9zm3.7 6.3.5-.3 2.8 4.9-.5.3-2.8-4.9zm3.7 6.4.5-.3 2.8 4.9h-.7l-2.6-4.6zM90 66.6h-1.7l6 10.3H96l-6-10.3zM93.3 66.6h-1.7l6 10.3h1.7l-6-10.3zM96.6 66.6h-1.7l6 10.3h1.7l-6-10.3z" class="st2"/></svg>