<?xml version="1.0" standalone="no"?>
<!DOCTYPE svg PUBLIC "-//W3C//DTD SVG 20010904//EN"
 "http://www.w3.org/TR/2001/REC-SVG-20010904/DTD/svg10.dtd">
<svg version="1.0" xmlns="http://www.w3.org/2000/svg"
 width="92.000000pt" height="92.000000pt" viewBox="0 0 92.000000 92.000000"
 preserveAspectRatio="xMidYMid meet">
<metadata>
Created by potrace 1.14, written by Peter Selinger 2001-2017
</metadata>
<g transform="translate(0.000000,92.000000) scale(0.100000,-0.100000)"
fill="#000000" stroke="none">
<path d="M345 643 c-59 -104 -116 -200 -126 -215 -11 -15 -19 -29 -19 -31 0
-3 -25 -47 -55 -98 -30 -52 -55 -97 -55 -100 0 -4 20 -6 45 -5 39 2 47 6 63
33 9 17 71 124 137 238 134 234 116 222 176 116 75 -131 213 -367 221 -378 5
-6 29 -11 53 -10 l44 1 -18 31 c-52 86 -323 558 -333 580 -6 14 -14 25 -18 25
-4 0 -56 -84 -115 -187z"/>
<path d="M414 558 c-20 -35 -50 -88 -67 -118 -16 -30 -34 -59 -38 -65 -18 -19
-8 -25 37 -23 44 1 47 3 77 56 34 61 29 62 80 -18 19 -30 29 -35 65 -38 23 -2
42 0 42 5 0 4 -24 49 -53 98 -28 50 -61 107 -72 128 -11 20 -23 37 -27 37 -4
0 -24 -28 -44 -62z"/>
<path d="M260 290 l-20 -40 220 0 220 0 -26 40 -27 40 -173 0 -174 0 -20 -40z"/>
<path d="M220 216 c-18 -18 -11 -22 37 -22 35 1 49 5 51 17 2 12 -6 15 -38 15
-22 0 -45 -5 -50 -10z"/>
<path d="M600 219 c0 -16 29 -28 67 -26 34 1 40 4 33 17 -8 15 -100 23 -100 9z"/>
<path d="M23 136 c-12 -19 -19 -37 -16 -40 9 -9 903 -7 903 2 0 4 -9 22 -20
40 l-20 32 -412 0 -413 0 -22 -34z"/>
</g>
</svg>
